<?xml version="1.0" encoding="utf-8"?>
<svg version="1.1" xmlns:xlink="http://www.w3.org/1999/xlink" width="8px" height="8px" xmlns="http://www.w3.org/2000/svg">
  <g transform="matrix(1 0 0 1 -76 -66 )">
    <path d="M 7.38616071428571 7.38616071428571  C 7.41443452380952 7.35788690476191  7.42857142857143 7.32440476190476  7.42857142857143 7.28571428571429  L 7.42857142857143 2.42857142857143  C 7.42857142857143 2.38988095238095  7.41443452380952 2.35639880952381  7.38616071428571 2.328125  C 7.35788690476191 2.29985119047619  7.32440476190476 2.28571428571429  7.28571428571429 2.28571428571429  L 2.42857142857143 2.28571428571429  C 2.38988095238095 2.28571428571429  2.35639880952381 2.29985119047619  2.328125 2.328125  C 2.29985119047619 2.35639880952381  2.28571428571429 2.38988095238095  2.28571428571429 2.42857142857143  L 2.28571428571429 7.28571428571429  C 2.28571428571429 7.32440476190476  2.29985119047619 7.35788690476191  2.328125 7.38616071428571  C 2.35639880952381 7.41443452380952  2.38988095238095 7.42857142857143  2.42857142857143 7.42857142857143  L 7.28571428571429 7.42857142857143  C 7.32440476190476 7.42857142857143  7.35788690476191 7.41443452380952  7.38616071428571 7.38616071428571  Z M 7.79017857142857 1.92410714285714  C 7.93005952380952 2.06398809523809  8 2.23214285714286  8 2.42857142857143  L 8 7.28571428571429  C 8 7.48214285714286  7.93005952380952 7.65029761904762  7.79017857142857 7.79017857142857  C 7.65029761904762 7.93005952380952  7.48214285714286 8  7.28571428571429 8  L 2.42857142857143 8  C 2.23214285714286 8  2.0639880952381 7.93005952380952  1.92410714285714 7.79017857142857  C 1.78422619047619 7.65029761904762  1.71428571428571 7.48214285714286  1.71428571428571 7.28571428571429  L 1.71428571428571 2.42857142857143  C 1.71428571428571 2.23214285714286  1.78422619047619 2.06398809523809  1.92410714285714 1.92410714285714  C 2.0639880952381 1.78422619047619  2.23214285714286 1.71428571428571  2.42857142857143 1.71428571428571  L 7.28571428571429 1.71428571428571  C 7.48214285714286 1.71428571428571  7.65029761904762 1.78422619047619  7.79017857142857 1.92410714285714  Z M 6.07589285714286 0.209821428571429  C 6.21577380952381 0.34970238095238  6.28571428571429 0.517857142857143  6.28571428571429 0.714285714285714  L 6.28571428571429 1.42857142857143  L 5.71428571428571 1.42857142857143  L 5.71428571428571 0.714285714285714  C 5.71428571428571 0.675595238095238  5.70014880952381 0.642113095238095  5.671875 0.613839285714286  C 5.64360119047619 0.585565476190475  5.61011904761905 0.571428571428571  5.57142857142857 0.571428571428571  L 0.714285714285714 0.571428571428571  C 0.675595238095238 0.571428571428571  0.642113095238095 0.585565476190475  0.613839285714286 0.613839285714286  C 0.585565476190476 0.642113095238095  0.571428571428571 0.675595238095238  0.571428571428571 0.714285714285714  L 0.571428571428571 5.57142857142857  C 0.571428571428571 5.61011904761905  0.585565476190476 5.64360119047619  0.613839285714286 5.671875  C 0.642113095238095 5.70014880952381  0.675595238095238 5.71428571428571  0.714285714285714 5.71428571428571  L 1.42857142857143 5.71428571428571  L 1.42857142857143 6.28571428571429  L 0.714285714285714 6.28571428571429  C 0.517857142857143 6.28571428571429  0.349702380952381 6.21577380952381  0.209821428571429 6.07589285714286  C 0.0699404761904762 5.9360119047619  0 5.76785714285714  0 5.57142857142857  L 0 0.714285714285714  C 0 0.517857142857143  0.0699404761904762 0.34970238095238  0.209821428571429 0.209821428571429  C 0.349702380952381 0.0699404761904763  0.517857142857143 0  0.714285714285714 0  L 5.57142857142857 0  C 5.76785714285714 0  5.93601190476191 0.0699404761904763  6.07589285714286 0.209821428571429  Z " fill-rule="nonzero" fill="#000000" stroke="none" transform="matrix(1 0 0 1 76 66 )" />
  </g>
</svg>