<?xml version="1.0" encoding="utf-8"?>
<svg version="1.1" xmlns:xlink="http://www.w3.org/1999/xlink" width="26px" height="24px" xmlns="http://www.w3.org/2000/svg">
  <g transform="matrix(1 0 0 1 -1208 -356 )">
    <path d="M 25.3872053872054 17.9393939393939  C 25.7957351290685 18.3164983164983  26 18.7744107744108  26 19.3131313131313  C 26 19.8518518518519  25.7957351290685 20.3097643097643  25.3872053872054 20.6868686868687  L 22.4107744107744 23.4343434343434  C 22.0022446689113 23.8114478114478  21.5061728395062 24  20.9225589225589 24  C 20.3389450056117 24  19.8428731762065 23.8114478114478  19.4343434343434 23.4343434343434  L 13 17.4949494949495  L 6.56565656565657 23.4343434343434  C 6.15712682379349 23.8114478114478  5.66105499438833 24  5.07744107744108 24  C 4.49382716049383 24  3.99775533108867 23.8114478114478  3.58922558922559 23.4343434343434  L 0.612794612794613 20.6868686868687  C 0.204264870931538 20.3097643097643  0 19.8518518518519  0 19.3131313131313  C 0 18.7744107744108  0.204264870931538 18.3164983164983  0.612794612794613 17.9393939393939  L 7.04713804713805 12  L 0.612794612794613 6.06060606060606  C 0.204264870931538 5.68350168350168  0 5.22558922558923  0 4.68686868686869  C 0 4.14814814814815  0.204264870931538 3.69023569023569  0.612794612794613 3.31313131313131  L 3.58922558922559 0.565656565656566  C 3.99775533108867 0.188552188552188  4.49382716049383 0  5.07744107744108 0  C 5.66105499438833 0  6.15712682379349 0.188552188552188  6.56565656565657 0.565656565656566  L 13 6.50505050505051  L 19.4343434343434 0.565656565656566  C 19.8428731762065 0.188552188552188  20.3389450056117 0  20.9225589225589 0  C 21.5061728395062 0  22.0022446689113 0.188552188552188  22.4107744107744 0.565656565656566  L 25.3872053872054 3.31313131313131  C 25.7957351290685 3.69023569023569  26 4.14814814814815  26 4.68686868686869  C 26 5.22558922558923  25.7957351290685 5.68350168350168  25.3872053872054 6.06060606060606  L 18.952861952862 12  L 25.3872053872054 17.9393939393939  Z " fill-rule="nonzero" fill="#000000" stroke="none" transform="matrix(1 0 0 1 1208 356 )" />
  </g>
</svg>