<?xml version="1.0" encoding="utf-8"?>
<svg version="1.1" xmlns:xlink="http://www.w3.org/1999/xlink" width="40px" height="35px" xmlns="http://www.w3.org/2000/svg">
  <g transform="matrix(1 0 0 1 -1382 -97 )">
    <path d="M 39.0572390572391 26.1616161616162  C 39.685746352413 26.7115600448934  40 27.3793490460157  40 28.1649831649832  C 40 28.9506172839506  39.685746352413 29.618406285073  39.0572390572391 30.1683501683502  L 34.4781144781145 34.1750841750842  C 33.8496071829405 34.7250280583614  33.0864197530864 35  32.1885521885522 35  C 31.290684624018 35  30.5274971941639 34.7250280583614  29.8989898989899 34.1750841750842  L 20 25.513468013468  L 10.1010101010101 34.1750841750842  C 9.47250280583614 34.7250280583614  8.70931537598204 35  7.81144781144781 35  C 6.91358024691358 35  6.15039281705949 34.7250280583614  5.52188552188552 34.1750841750842  L 0.942760942760943 30.1683501683502  C 0.314253647586981 29.618406285073  0 28.9506172839506  0 28.1649831649832  C 0 27.3793490460157  0.314253647586981 26.7115600448934  0.942760942760943 26.1616161616162  L 10.8417508417508 17.5  L 0.942760942760943 8.83838383838384  C 0.314253647586981 8.28843995510662  0 7.62065095398429  0 6.83501683501683  C 0 6.04938271604938  0.314253647586981 5.38159371492704  0.942760942760943 4.83164983164983  L 5.52188552188552 0.824915824915825  C 6.15039281705949 0.274971941638607  6.91358024691358 0  7.81144781144781 0  C 8.70931537598204 0  9.47250280583614 0.274971941638607  10.1010101010101 0.824915824915825  L 20 9.48653198653199  L 29.8989898989899 0.824915824915825  C 30.5274971941639 0.274971941638607  31.290684624018 0  32.1885521885522 0  C 33.0864197530864 0  33.8496071829405 0.274971941638607  34.4781144781145 0.824915824915825  L 39.0572390572391 4.83164983164983  C 39.685746352413 5.38159371492704  40 6.04938271604938  40 6.83501683501683  C 40 7.62065095398429  39.685746352413 8.28843995510662  39.0572390572391 8.83838383838384  L 29.1582491582492 17.5  L 39.0572390572391 26.1616161616162  Z " fill-rule="nonzero" fill="#000000" stroke="none" transform="matrix(1 0 0 1 1382 97 )" />
  </g>
</svg>