<?xml version="1.0" encoding="utf-8"?>
<svg version="1.1" xmlns:xlink="http://www.w3.org/1999/xlink" width="119px" height="25px" xmlns="http://www.w3.org/2000/svg">
  <defs>
    <mask fill="white" id="clip400">
      <path d="M 0 20  L 0 5  C 0 2.19999999999982  2.20000000000005 0  5 0  L 114 0  C 116.8 0  119 2.19999999999982  119 5  L 119 20  C 119 22.8000000000002  116.8 25  114 25  L 28.7349397590361 25  L 5 25  C 2.20000000000005 25  0 22.8000000000002  0 20  Z " fill-rule="evenodd" />
    </mask>
  </defs>
  <g transform="matrix(1 0 0 1 -425 -4721 )">
    <path d="M 0 20  L 0 5  C 0 2.19999999999982  2.20000000000005 0  5 0  L 114 0  C 116.8 0  119 2.19999999999982  119 5  L 119 20  C 119 22.8000000000002  116.8 25  114 25  L 28.7349397590361 25  L 5 25  C 2.20000000000005 25  0 22.8000000000002  0 20  Z " fill-rule="nonzero" fill="#ffffff" stroke="none" transform="matrix(1 0 0 1 425 4721 )" />
    <path d="M 0 20  L 0 5  C 0 2.19999999999982  2.20000000000005 0  5 0  L 114 0  C 116.8 0  119 2.19999999999982  119 5  L 119 20  C 119 22.8000000000002  116.8 25  114 25  L 28.7349397590361 25  L 5 25  C 2.20000000000005 25  0 22.8000000000002  0 20  Z " stroke-width="2" stroke="#797979" fill="none" transform="matrix(1 0 0 1 425 4721 )" mask="url(#clip400)" />
  </g>
</svg>