<?xml version="1.0" encoding="utf-8"?>
<svg version="1.1" xmlns:xlink="http://www.w3.org/1999/xlink" width="23px" height="25px" xmlns="http://www.w3.org/2000/svg">
  <g transform="matrix(1 0 0 1 -1005 -1104 )">
    <path d="M 23 12.5  C 23 12.7688172043011  22.8593951093951 13.0014474772539  22.5781853281853 13.1978908188586  L 6.10521235521236 24.7053349875931  C 5.82400257400257 24.9017783291977  5.49099099099099 25  5.10617760617761 25  C 4.72136422136422 25  4.38835263835264 24.9017783291977  4.10714285714286 24.7053349875931  L 0.421814671814672 22.1308933002481  C 0.140604890604891 21.9344499586435  0 21.7018196856907  0 21.4330024813896  C 0 21.1641852770885  0.140604890604891 20.9315550041356  0.421814671814672 20.735111662531  L 12.2104247104247 12.5  L 0.421814671814672 4.26488833746898  C 0.140604890604891 4.06844499586435  0 3.8358147229115  0 3.56699751861042  C 0 3.29818031430934  0.140604890604891 3.06555004135649  0.421814671814672 2.86910669975186  L 4.10714285714286 0.294665012406947  C 4.38835263835264 0.0982216708023148  4.72136422136422 0  5.10617760617761 0  C 5.49099099099099 0  5.82400257400257 0.0982216708023148  6.10521235521236 0.294665012406947  L 22.5781853281853 11.8021091811414  C 22.8593951093951 11.9985525227461  23 12.2311827956989  23 12.5  Z " fill-rule="nonzero" fill="#000000" stroke="none" transform="matrix(1 0 0 1 1005 1104 )" />
  </g>
</svg>