<?xml version="1.0" encoding="utf-8"?>
<svg version="1.1" xmlns:xlink="http://www.w3.org/1999/xlink" width="16px" height="28px" xmlns="http://www.w3.org/2000/svg">
  <g transform="matrix(1 0 0 1 -631 -1107 )">
    <path d="M 16 3.99503722084367  C 16 4.29611248966088  15.9021879021879 4.55665839536807  15.7065637065637 4.77667493796526  L 7.50579150579151 14  L 15.7065637065637 23.2233250620347  C 15.9021879021879 23.4433416046319  16 23.7038875103391  16 24.0049627791563  C 16 24.3060380479735  15.9021879021879 24.5665839536807  15.7065637065637 24.7866004962779  L 13.1428571428571 27.6699751861042  C 12.9472329472329 27.8899917287014  12.7155727155727 28  12.4478764478764 28  C 12.1801801801802 28  11.9485199485199 27.8899917287014  11.7528957528958 27.6699751861042  L 0.293436293436293 14.7816377171216  C 0.097812097812098 14.5616211745244  0 14.3010752688172  0 14  C 0 13.6989247311828  0.097812097812098 13.4383788254756  0.293436293436293 13.2183622828784  L 11.7528957528958 0.330024813895781  C 11.9485199485199 0.110008271298593  12.1801801801802 0  12.4478764478764 0  C 12.7155727155727 0  12.9472329472329 0.110008271298593  13.1428571428571 0.330024813895781  L 15.7065637065637 3.21339950372208  C 15.9021879021879 3.43341604631927  16 3.69396195202646  16 3.99503722084367  Z " fill-rule="nonzero" fill="#000000" stroke="none" transform="matrix(1 0 0 1 631 1107 )" />
  </g>
</svg>