<?xml version="1.0" encoding="utf-8"?>
<svg version="1.1" xmlns:xlink="http://www.w3.org/1999/xlink" width="13px" height="24px" xmlns="http://www.w3.org/2000/svg">
  <g transform="matrix(1 0 0 1 -971 -2131 )">
    <path d="M 13 12  C 13 12.258064516129  12.9205276705277 12.4813895781638  12.761583011583 12.6699751861042  L 3.4507722007722 23.7171215880893  C 3.29182754182754 23.9057071960298  3.1036036036036 24  2.88610038610039 24  C 2.66859716859717 24  2.48037323037323 23.9057071960298  2.32142857142857 23.7171215880893  L 0.238416988416988 21.2456575682382  C 0.0794723294723296 21.0570719602978  0 20.833746898263  0 20.575682382134  C 0 20.317617866005  0.0794723294723296 20.0942928039702  0.238416988416988 19.9057071960298  L 6.9015444015444 12  L 0.238416988416988 4.09429280397022  C 0.0794723294723296 3.90570719602977  0 3.68238213399504  0 3.424317617866  C 0 3.16625310173697  0.0794723294723296 2.94292803970223  0.238416988416988 2.75434243176179  L 2.32142857142857 0.282878411910669  C 2.48037323037323 0.0942928039702222  2.66859716859717 0  2.88610038610039 0  C 3.1036036036036 0  3.29182754182754 0.0942928039702222  3.4507722007722 0.282878411910669  L 12.761583011583 11.3300248138958  C 12.9205276705277 11.5186104218362  13 11.741935483871  13 12  Z " fill-rule="nonzero" fill="#000000" stroke="none" transform="matrix(1 0 0 1 971 2131 )" />
  </g>
</svg>