<?xml version="1.0" encoding="utf-8"?>
<svg version="1.1" xmlns:xlink="http://www.w3.org/1999/xlink" width="29px" height="28px" xmlns="http://www.w3.org/2000/svg">
  <g transform="matrix(1 0 0 1 -2377 -1184 )">
    <path d="M 28.3164983164983 20.9292929292929  C 28.7721661054994 21.3692480359147  29 21.9034792368126  29 22.5319865319865  C 29 23.1604938271605  28.7721661054994 23.6947250280584  28.3164983164983 24.1346801346801  L 24.996632996633 27.3400673400673  C 24.5409652076319 27.7800224466891  23.9876543209877 28  23.3367003367003 28  C 22.685746352413 28  22.1324354657688 27.7800224466891  21.6767676767677 27.3400673400673  L 14.5 20.4107744107744  L 7.32323232323232 27.3400673400673  C 6.8675645342312 27.7800224466891  6.31425364758698 28  5.66329966329966 28  C 5.01234567901235 28  4.45903479236813 27.7800224466891  4.003367003367 27.3400673400673  L 0.683501683501683 24.1346801346801  C 0.227833894500561 23.6947250280584  0 23.1604938271605  0 22.5319865319865  C 0 21.9034792368126  0.227833894500561 21.3692480359147  0.683501683501683 20.9292929292929  L 7.86026936026936 14  L 0.683501683501683 7.07070707070707  C 0.227833894500561 6.6307519640853  0 6.09652076318743  0 5.46801346801347  C 0 4.83950617283951  0.227833894500561 4.30527497194163  0.683501683501683 3.86531986531987  L 4.003367003367 0.65993265993266  C 4.45903479236813 0.219977553310886  5.01234567901235 0  5.66329966329966 0  C 6.31425364758698 0  6.8675645342312 0.219977553310886  7.32323232323232 0.65993265993266  L 14.5 7.58922558922559  L 21.6767676767677 0.65993265993266  C 22.1324354657688 0.219977553310886  22.685746352413 0  23.3367003367003 0  C 23.9876543209877 0  24.5409652076319 0.219977553310886  24.996632996633 0.65993265993266  L 28.3164983164983 3.86531986531987  C 28.7721661054994 4.30527497194163  29 4.83950617283951  29 5.46801346801347  C 29 6.09652076318743  28.7721661054994 6.6307519640853  28.3164983164983 7.07070707070707  L 21.1397306397306 14  L 28.3164983164983 20.9292929292929  Z " fill-rule="nonzero" fill="#000000" stroke="none" transform="matrix(1 0 0 1 2377 1184 )" />
  </g>
</svg>