<?xml version="1.0" encoding="utf-8"?>
<svg version="1.1" xmlns:xlink="http://www.w3.org/1999/xlink" width="36px" height="30px" xmlns="http://www.w3.org/2000/svg">
  <g transform="matrix(1 0 0 1 -1323 -192 )">
    <path d="M 35.1515151515151 22.4242424242424  C 35.7171717171717 22.8956228956229  36 23.4680134680135  36 24.1414141414141  C 36 24.8148148148148  35.7171717171717 25.3872053872054  35.1515151515151 25.8585858585859  L 31.030303030303 29.2929292929293  C 30.4646464646465 29.7643097643098  29.7777777777778 30  28.969696969697 30  C 28.1616161616162 30  27.4747474747475 29.7643097643098  26.9090909090909 29.2929292929293  L 18 21.8686868686869  L 9.09090909090909 29.2929292929293  C 8.52525252525253 29.7643097643098  7.83838383838384 30  7.03030303030303 30  C 6.22222222222222 30  5.53535353535354 29.7643097643098  4.96969696969697 29.2929292929293  L 0.848484848484849 25.8585858585859  C 0.282828282828283 25.3872053872054  0 24.8148148148148  0 24.1414141414141  C 0 23.4680134680135  0.282828282828283 22.8956228956229  0.848484848484849 22.4242424242424  L 9.75757575757576 15  L 0.848484848484849 7.57575757575757  C 0.282828282828283 7.1043771043771  0 6.53198653198653  0 5.85858585858586  C 0 5.18518518518519  0.282828282828283 4.61279461279461  0.848484848484849 4.14141414141414  L 4.96969696969697 0.707070707070707  C 5.53535353535354 0.235690235690235  6.22222222222222 0  7.03030303030303 0  C 7.83838383838384 0  8.52525252525253 0.235690235690235  9.09090909090909 0.707070707070707  L 18 8.13131313131313  L 26.9090909090909 0.707070707070707  C 27.4747474747475 0.235690235690235  28.1616161616162 0  28.969696969697 0  C 29.7777777777778 0  30.4646464646465 0.235690235690235  31.030303030303 0.707070707070707  L 35.1515151515151 4.14141414141414  C 35.7171717171717 4.61279461279461  36 5.18518518518519  36 5.85858585858586  C 36 6.53198653198653  35.7171717171717 7.1043771043771  35.1515151515151 7.57575757575757  L 26.2424242424242 15  L 35.1515151515151 22.4242424242424  Z " fill-rule="nonzero" fill="#000000" stroke="none" transform="matrix(1 0 0 1 1323 192 )" />
  </g>
</svg>