<?xml version="1.0" encoding="utf-8"?>
<svg version="1.1" xmlns:xlink="http://www.w3.org/1999/xlink" width="12px" height="12px" viewBox="1685 1627  12 12" xmlns="http://www.w3.org/2000/svg">
  <path d="M 1691 1627  C 1694.36 1627  1697 1629.64  1697 1633  C 1697 1636.36  1694.36 1639  1691 1639  C 1687.64 1639  1685 1636.36  1685 1633  C 1685 1629.64  1687.64 1627  1691 1627  Z " fill-rule="nonzero" fill="#f0f0f0" stroke="none" />
  <path d="M 1691 1627.5  C 1694.08 1627.5  1696.5 1629.92  1696.5 1633  C 1696.5 1636.08  1694.08 1638.5  1691 1638.5  C 1687.92 1638.5  1685.5 1636.08  1685.5 1633  C 1685.5 1629.92  1687.92 1627.5  1691 1627.5  Z " stroke-width="1" stroke="#797979" fill="none" />
  <path d="M 1691 1636  C 1689.32 1636  1688 1634.68  1688 1633  C 1688 1631.32  1689.32 1630  1691 1630  C 1692.68 1630  1694 1631.32  1694 1633  C 1694 1634.68  1692.68 1636  1691 1636  " fill-rule="nonzero" fill="#797979" stroke="none" />
</svg>