<?xml version="1.0" encoding="utf-8"?>
<svg version="1.1" xmlns:xlink="http://www.w3.org/1999/xlink" width="12px" height="12px" viewBox="1601 1840  12 12" xmlns="http://www.w3.org/2000/svg">
  <path d="M 1607 1840  C 1610.36 1840  1613 1842.64  1613 1846  C 1613 1849.36  1610.36 1852  1607 1852  C 1603.64 1852  1601 1849.36  1601 1846  C 1601 1842.64  1603.64 1840  1607 1840  Z " fill-rule="nonzero" fill="#ffffff" stroke="none" />
  <path d="M 1607 1840.5  C 1610.08 1840.5  1612.5 1842.92  1612.5 1846  C 1612.5 1849.08  1610.08 1851.5  1607 1851.5  C 1603.92 1851.5  1601.5 1849.08  1601.5 1846  C 1601.5 1842.92  1603.92 1840.5  1607 1840.5  Z " stroke-width="1" stroke="#797979" fill="none" />
  <path d="M 1607 1849  C 1605.32 1849  1604 1847.68  1604 1846  C 1604 1844.32  1605.32 1843  1607 1843  C 1608.68 1843  1610 1844.32  1610 1846  C 1610 1847.68  1608.68 1849  1607 1849  " fill-rule="nonzero" fill="#797979" stroke="none" />
</svg>