<?xml version="1.0" encoding="utf-8"?>
<svg version="1.1" xmlns:xlink="http://www.w3.org/1999/xlink" width="24px" height="14px" xmlns="http://www.w3.org/2000/svg">
  <g transform="matrix(1 0 0 1 -586 -1256 )">
    <path d="M 0.59765625 9.71796875  C 0.19921875 8.85390625  0 7.94791666666667  0 7  C 0 6.05208333333333  0.19921875 5.14609375  0.59765625 4.28203125  C 0.99609375 3.41796875  1.529296875 2.67421875  2.197265625 2.05078125  C 2.865234375 1.42734375  3.662109375 0.9296875  4.587890625 0.557812499999999  C 5.513671875 0.1859375  6.484375 0  7.5 0  L 16.5 0  C 17.515625 0  18.486328125 0.1859375  19.412109375 0.557812499999999  C 20.337890625 0.9296875  21.134765625 1.42734375  21.802734375 2.05078125  C 22.470703125 2.67421875  23.00390625 3.41796875  23.40234375 4.28203125  C 23.80078125 5.14609375  24 6.05208333333333  24 7  C 24 7.94791666666667  23.80078125 8.85390625  23.40234375 9.71796875  C 23.00390625 10.58203125  22.470703125 11.32578125  21.802734375 11.94921875  C 21.134765625 12.57265625  20.337890625 13.0703125  19.412109375 13.4421875  C 18.486328125 13.8140625  17.515625 14  16.5 14  L 7.5 14  C 6.484375 14  5.513671875 13.8140625  4.587890625 13.4421875  C 3.662109375 13.0703125  2.865234375 12.57265625  2.197265625 11.94921875  C 1.529296875 11.32578125  0.99609375 10.58203125  0.59765625 9.71796875  Z M 14.173828125 12.15703125  C 14.912109375 12.45234375  15.6875 12.6  16.5 12.6  C 17.3125 12.6  18.087890625 12.45234375  18.826171875 12.15703125  C 19.564453125 11.86171875  20.203125 11.4625  20.7421875 10.959375  C 21.28125 10.45625  21.708984375 9.86015625  22.025390625 9.17109375  C 22.341796875 8.48203125  22.5 7.75833333333333  22.5 7  C 22.5 6.24166666666667  22.341796875 5.51796875  22.025390625 4.82890625  C 21.708984375 4.13984375  21.28125 3.54375  20.7421875 3.040625  C 20.203125 2.5375  19.564453125 2.13828125  18.826171875 1.84296875  C 18.087890625 1.54765625  17.3125 1.4  16.5 1.4  C 15.6875 1.4  14.912109375 1.54765625  14.173828125 1.84296875  C 13.435546875 2.13828125  12.796875 2.5375  12.2578125 3.040625  C 11.71875 3.54375  11.291015625 4.13984375  10.974609375 4.82890625  C 10.658203125 5.51796875  10.5 6.24166666666667  10.5 7  C 10.5 7.75833333333333  10.658203125 8.48203125  10.974609375 9.17109375  C 11.291015625 9.86015625  11.71875 10.45625  12.2578125 10.959375  C 12.796875 11.4625  13.435546875 11.86171875  14.173828125 12.15703125  Z " fill-rule="nonzero" fill="#000000" stroke="none" transform="matrix(1 0 0 1 586 1256 )" />
  </g>
</svg>