<?xml version="1.0" encoding="utf-8"?>
<svg version="1.1" xmlns:xlink="http://www.w3.org/1999/xlink" width="24px" height="12px" xmlns="http://www.w3.org/2000/svg">
  <g transform="matrix(1 0 0 1 -586 -1315 )">
    <path d="M 13.025390625 7.8609375  C 13.341796875 7.2703125  13.5 6.65  13.5 6  C 13.5 5.35  13.341796875 4.7296875  13.025390625 4.1390625  C 12.708984375 3.5484375  12.28125 3.0375  11.7421875 2.60625  C 11.203125 2.175  10.564453125 1.8328125  9.826171875 1.5796875  C 9.087890625 1.3265625  8.3125 1.2  7.5 1.2  C 6.6875 1.2  5.912109375 1.3265625  5.173828125 1.5796875  C 4.435546875 1.8328125  3.796875 2.175  3.2578125 2.60625  C 2.71875 3.0375  2.291015625 3.5484375  1.974609375 4.1390625  C 1.658203125 4.7296875  1.5 5.35  1.5 6  C 1.5 6.65  1.658203125 7.2703125  1.974609375 7.8609375  C 2.291015625 8.4515625  2.71875 8.9625  3.2578125 9.39375  C 3.796875 9.825  4.435546875 10.1671875  5.173828125 10.4203125  C 5.912109375 10.6734375  6.6875 10.8  7.5 10.8  C 8.3125 10.8  9.087890625 10.6734375  9.826171875 10.4203125  C 10.564453125 10.1671875  11.203125 9.825  11.7421875 9.39375  C 12.28125 8.9625  12.708984375 8.4515625  13.025390625 7.8609375  Z M 22.025390625 7.8609375  C 22.341796875 7.2703125  22.5 6.65  22.5 6  C 22.5 5.35  22.341796875 4.7296875  22.025390625 4.1390625  C 21.708984375 3.5484375  21.28125 3.0375  20.7421875 2.60625  C 20.203125 2.175  19.564453125 1.8328125  18.826171875 1.5796875  C 18.087890625 1.3265625  17.3125 1.2  16.5 1.2  L 11.9765625 1.2  C 12.90625 1.7625  13.642578125 2.4625  14.185546875 3.3  C 14.728515625 4.1375  15 5.0375  15 6  C 15 6.9625  14.728515625 7.8625  14.185546875 8.7  C 13.642578125 9.5375  12.90625 10.2375  11.9765625 10.8  L 16.5 10.8  C 17.3125 10.8  18.087890625 10.6734375  18.826171875 10.4203125  C 19.564453125 10.1671875  20.203125 9.825  20.7421875 9.39375  C 21.28125 8.9625  21.708984375 8.4515625  22.025390625 7.8609375  Z M 23.40234375 3.6703125  C 23.80078125 4.4109375  24 5.1875  24 6  C 24 6.8125  23.80078125 7.5890625  23.40234375 8.3296875  C 23.00390625 9.0703125  22.470703125 9.7078125  21.802734375 10.2421875  C 21.134765625 10.7765625  20.337890625 11.203125  19.412109375 11.521875  C 18.486328125 11.840625  17.515625 12  16.5 12  L 7.5 12  C 6.484375 12  5.513671875 11.840625  4.587890625 11.521875  C 3.662109375 11.203125  2.865234375 10.7765625  2.197265625 10.2421875  C 1.529296875 9.7078125  0.99609375 9.0703125  0.59765625 8.3296875  C 0.19921875 7.5890625  0 6.8125  0 6  C 0 5.1875  0.19921875 4.4109375  0.59765625 3.6703125  C 0.99609375 2.9296875  1.529296875 2.2921875  2.197265625 1.7578125  C 2.865234375 1.2234375  3.662109375 0.796875  4.587890625 0.478124999999999  C 5.513671875 0.159375  6.484375 0  7.5 0  L 16.5 0  C 17.515625 0  18.486328125 0.159375  19.412109375 0.478124999999999  C 20.337890625 0.796875  21.134765625 1.2234375  21.802734375 1.7578125  C 22.470703125 2.2921875  23.00390625 2.9296875  23.40234375 3.6703125  Z " fill-rule="nonzero" fill="#000000" stroke="none" transform="matrix(1 0 0 1 586 1315 )" />
  </g>
</svg>