<?xml version="1.0" encoding="utf-8"?>
<svg version="1.1" xmlns:xlink="http://www.w3.org/1999/xlink" width="24px" height="11px" xmlns="http://www.w3.org/2000/svg">
  <g transform="matrix(1 0 0 1 -586 -1289 )">
    <path d="M 13.025390625 7.205859375  C 13.341796875 6.664453125  13.5 6.09583333333333  13.5 5.5  C 13.5 4.90416666666667  13.341796875 4.335546875  13.025390625 3.794140625  C 12.708984375 3.252734375  12.28125 2.784375  11.7421875 2.3890625  C 11.203125 1.99375  10.564453125 1.680078125  9.826171875 1.448046875  C 9.087890625 1.216015625  8.3125 1.1  7.5 1.1  C 6.6875 1.1  5.912109375 1.216015625  5.173828125 1.448046875  C 4.435546875 1.680078125  3.796875 1.99375  3.2578125 2.3890625  C 2.71875 2.784375  2.291015625 3.252734375  1.974609375 3.794140625  C 1.658203125 4.335546875  1.5 4.90416666666667  1.5 5.5  C 1.5 6.09583333333333  1.658203125 6.664453125  1.974609375 7.205859375  C 2.291015625 7.747265625  2.71875 8.215625  3.2578125 8.6109375  C 3.796875 9.00625  4.435546875 9.319921875  5.173828125 9.551953125  C 5.912109375 9.783984375  6.6875 9.9  7.5 9.9  C 8.3125 9.9  9.087890625 9.783984375  9.826171875 9.551953125  C 10.564453125 9.319921875  11.203125 9.00625  11.7421875 8.6109375  C 12.28125 8.215625  12.708984375 7.747265625  13.025390625 7.205859375  Z M 22.025390625 7.205859375  C 22.341796875 6.664453125  22.5 6.09583333333333  22.5 5.5  C 22.5 4.90416666666667  22.341796875 4.335546875  22.025390625 3.794140625  C 21.708984375 3.252734375  21.28125 2.784375  20.7421875 2.3890625  C 20.203125 1.99375  19.564453125 1.680078125  18.826171875 1.448046875  C 18.087890625 1.216015625  17.3125 1.1  16.5 1.1  L 11.9765625 1.1  C 12.90625 1.615625  13.642578125 2.25729166666667  14.185546875 3.025  C 14.728515625 3.79270833333333  15 4.61770833333333  15 5.5  C 15 6.38229166666667  14.728515625 7.20729166666666  14.185546875 7.975  C 13.642578125 8.74270833333333  12.90625 9.384375  11.9765625 9.9  L 16.5 9.9  C 17.3125 9.9  18.087890625 9.783984375  18.826171875 9.551953125  C 19.564453125 9.319921875  20.203125 9.00625  20.7421875 8.6109375  C 21.28125 8.215625  21.708984375 7.747265625  22.025390625 7.205859375  Z M 23.40234375 3.364453125  C 23.80078125 4.043359375  24 4.75520833333333  24 5.5  C 24 6.24479166666667  23.80078125 6.956640625  23.40234375 7.635546875  C 23.00390625 8.314453125  22.470703125 8.898828125  21.802734375 9.388671875  C 21.134765625 9.878515625  20.337890625 10.26953125  19.412109375 10.56171875  C 18.486328125 10.85390625  17.515625 11  16.5 11  L 7.5 11  C 6.484375 11  5.513671875 10.85390625  4.587890625 10.56171875  C 3.662109375 10.26953125  2.865234375 9.878515625  2.197265625 9.388671875  C 1.529296875 8.898828125  0.99609375 8.314453125  0.59765625 7.635546875  C 0.19921875 6.956640625  0 6.24479166666667  0 5.5  C 0 4.75520833333333  0.19921875 4.043359375  0.59765625 3.364453125  C 0.99609375 2.685546875  1.529296875 2.101171875  2.197265625 1.611328125  C 2.865234375 1.121484375  3.662109375 0.73046875  4.587890625 0.43828125  C 5.513671875 0.14609375  6.484375 0  7.5 0  L 16.5 0  C 17.515625 0  18.486328125 0.14609375  19.412109375 0.43828125  C 20.337890625 0.73046875  21.134765625 1.121484375  21.802734375 1.611328125  C 22.470703125 2.101171875  23.00390625 2.685546875  23.40234375 3.364453125  Z " fill-rule="nonzero" fill="#000000" stroke="none" transform="matrix(1 0 0 1 586 1289 )" />
  </g>
</svg>