<?xml version="1.0" encoding="utf-8"?>
<svg version="1.1" xmlns:xlink="http://www.w3.org/1999/xlink" width="12px" height="12px" viewBox="669 580  12 12" xmlns="http://www.w3.org/2000/svg">
  <path d="M 675 580  C 678.36 580  681 582.64  681 586  C 681 589.36  678.36 592  675 592  C 671.64 592  669 589.36  669 586  C 669 582.64  671.64 580  675 580  Z " fill-rule="nonzero" fill="#ffffff" stroke="none" />
  <path d="M 675 580.5  C 678.08 580.5  680.5 582.92  680.5 586  C 680.5 589.08  678.08 591.5  675 591.5  C 671.92 591.5  669.5 589.08  669.5 586  C 669.5 582.92  671.92 580.5  675 580.5  Z " stroke-width="1" stroke="#797979" fill="none" />
  <path d="M 675 589  C 673.32 589  672 587.68  672 586  C 672 584.32  673.32 583  675 583  C 676.68 583  678 584.32  678 586  C 678 587.68  676.68 589  675 589  " fill-rule="nonzero" fill="#797979" stroke="none" />
</svg>