<?xml version="1.0" encoding="utf-8"?>
<svg version="1.1" xmlns:xlink="http://www.w3.org/1999/xlink" width="12px" height="12px" viewBox="782 580  12 12" xmlns="http://www.w3.org/2000/svg">
  <path d="M 788 580  C 791.36 580  794 582.64  794 586  C 794 589.36  791.36 592  788 592  C 784.64 592  782 589.36  782 586  C 782 582.64  784.64 580  788 580  Z " fill-rule="nonzero" fill="#f0f0f0" stroke="none" />
  <path d="M 788 580.5  C 791.08 580.5  793.5 582.92  793.5 586  C 793.5 589.08  791.08 591.5  788 591.5  C 784.92 591.5  782.5 589.08  782.5 586  C 782.5 582.92  784.92 580.5  788 580.5  Z " stroke-width="1" stroke="#797979" fill="none" />
  <path d="M 788 589  C 786.32 589  785 587.68  785 586  C 785 584.32  786.32 583  788 583  C 789.68 583  791 584.32  791 586  C 791 587.68  789.68 589  788 589  " fill-rule="nonzero" fill="#797979" stroke="none" />
</svg>