<?xml version="1.0" encoding="utf-8"?>
<svg version="1.1" xmlns:xlink="http://www.w3.org/1999/xlink" width="12px" height="12px" viewBox="1520 560  12 12" xmlns="http://www.w3.org/2000/svg">
  <path d="M 1526 560  C 1529.36 560  1532 562.64  1532 566  C 1532 569.36  1529.36 572  1526 572  C 1522.64 572  1520 569.36  1520 566  C 1520 562.64  1522.64 560  1526 560  Z " fill-rule="nonzero" fill="#f0f0f0" stroke="none" />
  <path d="M 1526 560.5  C 1529.08 560.5  1531.5 562.92  1531.5 566  C 1531.5 569.08  1529.08 571.5  1526 571.5  C 1522.92 571.5  1520.5 569.08  1520.5 566  C 1520.5 562.92  1522.92 560.5  1526 560.5  Z " stroke-width="1" stroke="#797979" fill="none" />
  <path d="M 1526 569  C 1524.32 569  1523 567.68  1523 566  C 1523 564.32  1524.32 563  1526 563  C 1527.68 563  1529 564.32  1529 566  C 1529 567.68  1527.68 569  1526 569  " fill-rule="nonzero" fill="#797979" stroke="none" />
</svg>