<?xml version="1.0" encoding="utf-8"?>
<svg version="1.1" xmlns:xlink="http://www.w3.org/1999/xlink" width="12px" height="12px" viewBox="1683 574  12 12" xmlns="http://www.w3.org/2000/svg">
  <path d="M 1689 574  C 1692.36 574  1695 576.64  1695 580  C 1695 583.36  1692.36 586  1689 586  C 1685.64 586  1683 583.36  1683 580  C 1683 576.64  1685.64 574  1689 574  Z " fill-rule="nonzero" fill="#f0f0f0" stroke="none" />
  <path d="M 1689 574.5  C 1692.08 574.5  1694.5 576.92  1694.5 580  C 1694.5 583.08  1692.08 585.5  1689 585.5  C 1685.92 585.5  1683.5 583.08  1683.5 580  C 1683.5 576.92  1685.92 574.5  1689 574.5  Z " stroke-width="1" stroke="#797979" fill="none" />
  <path d="M 1689 583  C 1687.32 583  1686 581.68  1686 580  C 1686 578.32  1687.32 577  1689 577  C 1690.68 577  1692 578.32  1692 580  C 1692 581.68  1690.68 583  1689 583  " fill-rule="nonzero" fill="#797979" stroke="none" />
</svg>