<?xml version="1.0" encoding="utf-8"?>
<svg version="1.1" xmlns:xlink="http://www.w3.org/1999/xlink" width="12px" height="12px" viewBox="1570 574  12 12" xmlns="http://www.w3.org/2000/svg">
  <path d="M 1576 574  C 1579.36 574  1582 576.64  1582 580  C 1582 583.36  1579.36 586  1576 586  C 1572.64 586  1570 583.36  1570 580  C 1570 576.64  1572.64 574  1576 574  Z " fill-rule="nonzero" fill="#ffffff" stroke="none" />
  <path d="M 1576 574.5  C 1579.08 574.5  1581.5 576.92  1581.5 580  C 1581.5 583.08  1579.08 585.5  1576 585.5  C 1572.92 585.5  1570.5 583.08  1570.5 580  C 1570.5 576.92  1572.92 574.5  1576 574.5  Z " stroke-width="1" stroke="#797979" fill="none" />
  <path d="M 1576 583  C 1574.32 583  1573 581.68  1573 580  C 1573 578.32  1574.32 577  1576 577  C 1577.68 577  1579 578.32  1579 580  C 1579 581.68  1577.68 583  1576 583  " fill-rule="nonzero" fill="#797979" stroke="none" />
</svg>