<?xml version="1.0" encoding="utf-8"?>
<svg version="1.1" xmlns:xlink="http://www.w3.org/1999/xlink" width="12px" height="12px" viewBox="600 432  12 12" xmlns="http://www.w3.org/2000/svg">
  <path d="M 606 432  C 609.36 432  612 434.64  612 438  C 612 441.36  609.36 444  606 444  C 602.64 444  600 441.36  600 438  C 600 434.64  602.64 432  606 432  Z " fill-rule="nonzero" fill="#ffffff" stroke="none" />
  <path d="M 606 432.5  C 609.08 432.5  611.5 434.92  611.5 438  C 611.5 441.08  609.08 443.5  606 443.5  C 602.92 443.5  600.5 441.08  600.5 438  C 600.5 434.92  602.92 432.5  606 432.5  Z " stroke-width="1" stroke="#797979" fill="none" />
  <path d="M 606 441  C 604.32 441  603 439.68  603 438  C 603 436.32  604.32 435  606 435  C 607.68 435  609 436.32  609 438  C 609 439.68  607.68 441  606 441  " fill-rule="nonzero" fill="#797979" stroke="none" />
</svg>