<?xml version="1.0" encoding="utf-8"?>
<svg version="1.1" xmlns:xlink="http://www.w3.org/1999/xlink" width="12px" height="12px" viewBox="488 432  12 12" xmlns="http://www.w3.org/2000/svg">
  <path d="M 494 432  C 497.36 432  500 434.64  500 438  C 500 441.36  497.36 444  494 444  C 490.64 444  488 441.36  488 438  C 488 434.64  490.64 432  494 432  Z " fill-rule="nonzero" fill="#f0f0f0" stroke="none" />
  <path d="M 494 432.5  C 497.08 432.5  499.5 434.92  499.5 438  C 499.5 441.08  497.08 443.5  494 443.5  C 490.92 443.5  488.5 441.08  488.5 438  C 488.5 434.92  490.92 432.5  494 432.5  Z " stroke-width="1" stroke="#797979" fill="none" />
  <path d="M 494 441  C 492.32 441  491 439.68  491 438  C 491 436.32  492.32 435  494 435  C 495.68 435  497 436.32  497 438  C 497 439.68  495.68 441  494 441  " fill-rule="nonzero" fill="#797979" stroke="none" />
</svg>