<?xml version="1.0" encoding="utf-8"?>
<svg version="1.1" xmlns:xlink="http://www.w3.org/1999/xlink" width="13px" height="13px" xmlns="http://www.w3.org/2000/svg">
  <g transform="matrix(1 0 0 1 -349 -195 )">
    <path d="M 12.0025111607143 12.0025111607143  C 12.0484561011905 11.9565662202381  12.0714285714286 11.9021577380952  12.0714285714286 11.8392857142857  L 12.0714285714286 3.94642857142857  C 12.0714285714286 3.88355654761905  12.0484561011905 3.82914806547619  12.0025111607143 3.783203125  C 11.9565662202381 3.73725818452381  11.9021577380952 3.71428571428571  11.8392857142857 3.71428571428571  L 3.94642857142857 3.71428571428571  C 3.88355654761905 3.71428571428571  3.82914806547619 3.73725818452381  3.783203125 3.783203125  C 3.73725818452381 3.82914806547619  3.71428571428571 3.88355654761905  3.71428571428571 3.94642857142857  L 3.71428571428571 11.8392857142857  C 3.71428571428571 11.9021577380952  3.73725818452381 11.9565662202381  3.783203125 12.0025111607143  C 3.82914806547619 12.0484561011905  3.88355654761905 12.0714285714286  3.94642857142857 12.0714285714286  L 11.8392857142857 12.0714285714286  C 11.9021577380952 12.0714285714286  11.9565662202381 12.0484561011905  12.0025111607143 12.0025111607143  Z M 12.6590401785714 3.12667410714286  C 12.8863467261905 3.3539806547619  13 3.62723214285714  13 3.94642857142857  L 13 11.8392857142857  C 13 12.1584821428571  12.8863467261905 12.4317336309524  12.6590401785714 12.6590401785714  C 12.4317336309524 12.8863467261905  12.1584821428571 13  11.8392857142857 13  L 3.94642857142857 13  C 3.62723214285714 13  3.35398065476191 12.8863467261905  3.12667410714286 12.6590401785714  C 2.89936755952381 12.4317336309524  2.78571428571429 12.1584821428571  2.78571428571429 11.8392857142857  L 2.78571428571429 3.94642857142857  C 2.78571428571429 3.62723214285714  2.89936755952381 3.3539806547619  3.12667410714286 3.12667410714286  C 3.35398065476191 2.89936755952381  3.62723214285714 2.78571428571429  3.94642857142857 2.78571428571429  L 11.8392857142857 2.78571428571429  C 12.1584821428571 2.78571428571429  12.4317336309524 2.89936755952381  12.6590401785714 3.12667410714286  Z M 9.87332589285714 0.340959821428572  C 10.1006324404762 0.568266369047618  10.2142857142857 0.841517857142858  10.2142857142857 1.16071428571429  L 10.2142857142857 2.32142857142857  L 9.28571428571429 2.32142857142857  L 9.28571428571429 1.16071428571429  C 9.28571428571429 1.09784226190476  9.26274181547619 1.0434337797619  9.216796875 0.997488839285714  C 9.17085193452381 0.951543898809523  9.11644345238095 0.928571428571428  9.05357142857143 0.928571428571428  L 1.16071428571429 0.928571428571428  C 1.09784226190476 0.928571428571428  1.0434337797619 0.951543898809523  0.997488839285714 0.997488839285714  C 0.951543898809524 1.0434337797619  0.928571428571428 1.09784226190476  0.928571428571428 1.16071428571429  L 0.928571428571428 9.05357142857143  C 0.928571428571428 9.11644345238095  0.951543898809524 9.17085193452381  0.997488839285714 9.216796875  C 1.0434337797619 9.26274181547619  1.09784226190476 9.28571428571429  1.16071428571429 9.28571428571429  L 2.32142857142857 9.28571428571429  L 2.32142857142857 10.2142857142857  L 1.16071428571429 10.2142857142857  C 0.841517857142857 10.2142857142857  0.568266369047619 10.1006324404762  0.340959821428571 9.87332589285714  C 0.113653273809524 9.64601934523809  0 9.37276785714286  0 9.05357142857143  L 0 1.16071428571429  C 0 0.841517857142858  0.113653273809524 0.568266369047618  0.340959821428571 0.340959821428572  C 0.568266369047619 0.113653273809524  0.841517857142857 0  1.16071428571429 0  L 9.05357142857143 0  C 9.37276785714286 0  9.64601934523809 0.113653273809524  9.87332589285714 0.340959821428572  Z " fill-rule="nonzero" fill="#000000" stroke="none" transform="matrix(1 0 0 1 349 195 )" />
  </g>
</svg>