<?xml version="1.0" encoding="utf-8"?>
<svg version="1.1" xmlns:xlink="http://www.w3.org/1999/xlink" width="12px" height="12px" viewBox="514 290  12 12" xmlns="http://www.w3.org/2000/svg">
  <path d="M 520 290  C 523.36 290  526 292.64  526 296  C 526 299.36  523.36 302  520 302  C 516.64 302  514 299.36  514 296  C 514 292.64  516.64 290  520 290  Z " fill-rule="nonzero" fill="#f0f0f0" stroke="none" />
  <path d="M 520 290.5  C 523.08 290.5  525.5 292.92  525.5 296  C 525.5 299.08  523.08 301.5  520 301.5  C 516.92 301.5  514.5 299.08  514.5 296  C 514.5 292.92  516.92 290.5  520 290.5  Z " stroke-width="1" stroke="#797979" fill="none" />
  <path d="M 520 299  C 518.32 299  517 297.68  517 296  C 517 294.32  518.32 293  520 293  C 521.68 293  523 294.32  523 296  C 523 297.68  521.68 299  520 299  " fill-rule="nonzero" fill="#797979" stroke="none" />
</svg>