<?xml version="1.0" encoding="utf-8"?>
<svg version="1.1" xmlns:xlink="http://www.w3.org/1999/xlink" width="12px" height="12px" viewBox="626 290  12 12" xmlns="http://www.w3.org/2000/svg">
  <path d="M 632 290  C 635.36 290  638 292.64  638 296  C 638 299.36  635.36 302  632 302  C 628.64 302  626 299.36  626 296  C 626 292.64  628.64 290  632 290  Z " fill-rule="nonzero" fill="#ffffff" stroke="none" />
  <path d="M 632 290.5  C 635.08 290.5  637.5 292.92  637.5 296  C 637.5 299.08  635.08 301.5  632 301.5  C 628.92 301.5  626.5 299.08  626.5 296  C 626.5 292.92  628.92 290.5  632 290.5  Z " stroke-width="1" stroke="#797979" fill="none" />
  <path d="M 632 299  C 630.32 299  629 297.68  629 296  C 629 294.32  630.32 293  632 293  C 633.68 293  635 294.32  635 296  C 635 297.68  633.68 299  632 299  " fill-rule="nonzero" fill="#797979" stroke="none" />
</svg>