<?xml version="1.0" encoding="utf-8"?>
<svg version="1.1" xmlns:xlink="http://www.w3.org/1999/xlink" width="12px" height="12px" viewBox="731 1540  12 12" xmlns="http://www.w3.org/2000/svg">
  <path d="M 737 1540  C 740.36 1540  743 1542.64  743 1546  C 743 1549.36  740.36 1552  737 1552  C 733.64 1552  731 1549.36  731 1546  C 731 1542.64  733.64 1540  737 1540  Z " fill-rule="nonzero" fill="#ffffff" stroke="none" />
  <path d="M 737 1540.5  C 740.08 1540.5  742.5 1542.92  742.5 1546  C 742.5 1549.08  740.08 1551.5  737 1551.5  C 733.92 1551.5  731.5 1549.08  731.5 1546  C 731.5 1542.92  733.92 1540.5  737 1540.5  Z " stroke-width="1" stroke="#797979" fill="none" />
  <path d="M 737 1549  C 735.32 1549  734 1547.68  734 1546  C 734 1544.32  735.32 1543  737 1543  C 738.68 1543  740 1544.32  740 1546  C 740 1547.68  738.68 1549  737 1549  " fill-rule="nonzero" fill="#797979" stroke="none" />
</svg>