<?xml version="1.0" encoding="utf-8"?>
<svg version="1.1" xmlns:xlink="http://www.w3.org/1999/xlink" width="12px" height="12px" viewBox="831 1543  12 12" xmlns="http://www.w3.org/2000/svg">
  <path d="M 837 1543  C 840.36 1543  843 1545.64  843 1549  C 843 1552.36  840.36 1555  837 1555  C 833.64 1555  831 1552.36  831 1549  C 831 1545.64  833.64 1543  837 1543  Z " fill-rule="nonzero" fill="#ffffff" stroke="none" />
  <path d="M 837 1543.5  C 840.08 1543.5  842.5 1545.92  842.5 1549  C 842.5 1552.08  840.08 1554.5  837 1554.5  C 833.92 1554.5  831.5 1552.08  831.5 1549  C 831.5 1545.92  833.92 1543.5  837 1543.5  Z " stroke-width="1" stroke="#797979" fill="none" />
  <path d="M 837 1552  C 835.32 1552  834 1550.68  834 1549  C 834 1547.32  835.32 1546  837 1546  C 838.68 1546  840 1547.32  840 1549  C 840 1550.68  838.68 1552  837 1552  " fill-rule="nonzero" fill="#797979" stroke="none" />
</svg>