<?xml version="1.0" encoding="utf-8"?>
<svg version="1.1" xmlns:xlink="http://www.w3.org/1999/xlink" width="37px" height="28px" xmlns="http://www.w3.org/2000/svg">
  <g transform="matrix(1 0 0 1 -2193 -814 )">
    <path d="M 36.1279461279461 20.9292929292929  C 36.709315375982 21.3692480359147  37 21.9034792368126  37 22.5319865319865  C 37 23.1604938271605  36.709315375982 23.6947250280584  36.1279461279461 24.1346801346801  L 31.8922558922559 27.3400673400673  C 31.31088664422 27.7800224466891  30.6049382716049 28  29.7744107744108 28  C 28.9438832772166 28  28.2379349046016 27.7800224466891  27.6565656565657 27.3400673400673  L 18.5 20.4107744107744  L 9.34343434343434 27.3400673400673  C 8.76206509539843 27.7800224466891  8.05611672278339 28  7.22558922558923 28  C 6.39506172839506 28  5.68911335578002 27.7800224466891  5.10774410774411 27.3400673400673  L 0.872053872053872 24.1346801346801  C 0.290684624017958 23.6947250280584  0 23.1604938271605  0 22.5319865319865  C 0 21.9034792368126  0.290684624017958 21.3692480359147  0.872053872053872 20.9292929292929  L 10.0286195286195 14  L 0.872053872053872 7.07070707070707  C 0.290684624017958 6.6307519640853  0 6.09652076318743  0 5.46801346801347  C 0 4.83950617283951  0.290684624017958 4.30527497194163  0.872053872053872 3.86531986531987  L 5.10774410774411 0.65993265993266  C 5.68911335578002 0.219977553310886  6.39506172839506 0  7.22558922558923 0  C 8.05611672278339 0  8.76206509539843 0.219977553310886  9.34343434343434 0.65993265993266  L 18.5 7.58922558922559  L 27.6565656565657 0.65993265993266  C 28.2379349046016 0.219977553310886  28.9438832772166 0  29.7744107744108 0  C 30.6049382716049 0  31.31088664422 0.219977553310886  31.8922558922559 0.65993265993266  L 36.1279461279461 3.86531986531987  C 36.709315375982 4.30527497194163  37 4.83950617283951  37 5.46801346801347  C 37 6.09652076318743  36.709315375982 6.6307519640853  36.1279461279461 7.07070707070707  L 26.9713804713805 14  L 36.1279461279461 20.9292929292929  Z " fill-rule="nonzero" fill="#000000" stroke="none" transform="matrix(1 0 0 1 2193 814 )" />
  </g>
</svg>