<?xml version="1.0" encoding="utf-8"?>
<svg version="1.1" xmlns:xlink="http://www.w3.org/1999/xlink" width="12px" height="12px" viewBox="515 297  12 12" xmlns="http://www.w3.org/2000/svg">
  <path d="M 521 297  C 524.36 297  527 299.64  527 303  C 527 306.36  524.36 309  521 309  C 517.64 309  515 306.36  515 303  C 515 299.64  517.64 297  521 297  Z " fill-rule="nonzero" fill="#ffffff" stroke="none" />
  <path d="M 521 297.5  C 524.08 297.5  526.5 299.92  526.5 303  C 526.5 306.08  524.08 308.5  521 308.5  C 517.92 308.5  515.5 306.08  515.5 303  C 515.5 299.92  517.92 297.5  521 297.5  Z " stroke-width="1" stroke="#797979" fill="none" />
  <path d="M 521 306  C 519.32 306  518 304.68  518 303  C 518 301.32  519.32 300  521 300  C 522.68 300  524 301.32  524 303  C 524 304.68  522.68 306  521 306  " fill-rule="nonzero" fill="#797979" stroke="none" />
</svg>