<?xml version="1.0" encoding="utf-8"?>
<svg version="1.1" xmlns:xlink="http://www.w3.org/1999/xlink" width="12px" height="12px" viewBox="627 297  12 12" xmlns="http://www.w3.org/2000/svg">
  <path d="M 633 297  C 636.36 297  639 299.64  639 303  C 639 306.36  636.36 309  633 309  C 629.64 309  627 306.36  627 303  C 627 299.64  629.64 297  633 297  Z " fill-rule="nonzero" fill="#f0f0f0" stroke="none" />
  <path d="M 633 297.5  C 636.08 297.5  638.5 299.92  638.5 303  C 638.5 306.08  636.08 308.5  633 308.5  C 629.92 308.5  627.5 306.08  627.5 303  C 627.5 299.92  629.92 297.5  633 297.5  Z " stroke-width="1" stroke="#797979" fill="none" />
  <path d="M 633 306  C 631.32 306  630 304.68  630 303  C 630 301.32  631.32 300  633 300  C 634.68 300  636 301.32  636 303  C 636 304.68  634.68 306  633 306  " fill-rule="nonzero" fill="#797979" stroke="none" />
</svg>