<?xml version="1.0" encoding="utf-8"?>
<svg version="1.1" xmlns:xlink="http://www.w3.org/1999/xlink" width="18px" height="19px" xmlns="http://www.w3.org/2000/svg">
  <g transform="matrix(1 0 0 1 -889 -129 )">
    <path d="M 16.6188616071429 17.5421316964286  C 16.6824776785714 17.4749813988095  16.7142857142857 17.3954613095238  16.7142857142857 17.3035714285714  L 16.7142857142857 5.76785714285714  C 16.7142857142857 5.67596726190476  16.6824776785714 5.59644717261905  16.6188616071429 5.529296875  C 16.5552455357143 5.46214657738095  16.4799107142857 5.42857142857143  16.3928571428571 5.42857142857143  L 5.46428571428571 5.42857142857143  C 5.37723214285714 5.42857142857143  5.30189732142857 5.46214657738095  5.23828125 5.529296875  C 5.17466517857143 5.59644717261905  5.14285714285714 5.67596726190476  5.14285714285714 5.76785714285714  L 5.14285714285714 17.3035714285714  C 5.14285714285714 17.3954613095238  5.17466517857143 17.4749813988095  5.23828125 17.5421316964286  C 5.30189732142857 17.6092819940476  5.37723214285714 17.6428571428571  5.46428571428571 17.6428571428571  L 16.3928571428571 17.6428571428571  C 16.4799107142857 17.6428571428571  16.5552455357143 17.6092819940476  16.6188616071429 17.5421316964286  Z M 17.5279017857143 4.56975446428572  C 17.8426339285714 4.90197172619048  18 5.30133928571428  18 5.76785714285714  L 18 17.3035714285714  C 18 17.7700892857143  17.8426339285714 18.1694568452381  17.5279017857143 18.5016741071429  C 17.2131696428571 18.8338913690476  16.8348214285714 19  16.3928571428571 19  L 5.46428571428571 19  C 5.02232142857143 19  4.64397321428571 18.8338913690476  4.32924107142857 18.5016741071429  C 4.01450892857143 18.1694568452381  3.85714285714286 17.7700892857143  4 17.3035714285714  L 4 5.76785714285714  C 3.85714285714286 5.30133928571428  4.01450892857143 4.90197172619048  4.32924107142857 4.56975446428572  C 4.64397321428571 4.23753720238095  5.02232142857143 4.07142857142857  5.46428571428571 4  L 16.3928571428571 4  C 16.8348214285714 4.07142857142857  17.2131696428571 4.23753720238095  17.5279017857143 4.56975446428572  Z M 13.6707589285714 0.498325892857143  C 13.9854910714286 0.830543154761904  14.1428571428571 1.22991071428572  14.1428571428571 1.69642857142857  L 14.1428571428571 3.39285714285714  L 12.8571428571429 3.39285714285714  L 12.8571428571429 1.69642857142857  C 12.8571428571429 1.60453869047619  12.8253348214286 1.52501860119048  12.76171875 1.45786830357143  C 12.6981026785714 1.39071800595238  12.6227678571429 1.35714285714286  12.5357142857143 1.35714285714286  L 1.60714285714286 1.35714285714286  C 1.52008928571429 1.35714285714286  1.44475446428571 1.39071800595238  1.38113839285714 1.45786830357143  C 1.31752232142857 1.52501860119048  1.28571428571429 1.60453869047619  1.28571428571429 1.69642857142857  L 1.28571428571429 13.2321428571429  C 1.28571428571429 13.3240327380952  1.31752232142857 13.403552827381  1.38113839285714 13.470703125  C 1.44475446428571 13.537853422619  1.52008928571429 13.5714285714286  1.60714285714286 13.5714285714286  L 3.21428571428571 13.5714285714286  L 3.21428571428571 14.9285714285714  L 1.60714285714286 14.9285714285714  C 1.16517857142857 14.9285714285714  0.786830357142857 14.762462797619  0.472098214285714 14.4302455357143  C 0.157366071428571 14.0980282738095  0 13.6986607142857  0 13.2321428571429  L 0 1.69642857142857  C 0 1.22991071428572  0.157366071428571 0.830543154761904  0.472098214285714 0.498325892857143  C 0.786830357142857 0.166108630952381  1.16517857142857 0  1.60714285714286 0  L 12.5357142857143 0  C 12.9776785714286 0  13.3560267857143 0.166108630952381  13.6707589285714 0.498325892857143  Z " fill-rule="nonzero" fill="#000000" stroke="none" transform="matrix(1 0 0 1 889 129 )" />
  </g>
</svg>