<?xml version="1.0" encoding="utf-8"?>
<svg version="1.1" xmlns:xlink="http://www.w3.org/1999/xlink" width="12px" height="12px" viewBox="275 1390  12 12" xmlns="http://www.w3.org/2000/svg">
  <path d="M 281 1390  C 284.36 1390  287 1392.64  287 1396  C 287 1399.36  284.36 1402  281 1402  C 277.64 1402  275 1399.36  275 1396  C 275 1392.64  277.64 1390  281 1390  Z " fill-rule="nonzero" fill="#f0f0f0" stroke="none" />
  <path d="M 281 1390.5  C 284.08 1390.5  286.5 1392.92  286.5 1396  C 286.5 1399.08  284.08 1401.5  281 1401.5  C 277.92 1401.5  275.5 1399.08  275.5 1396  C 275.5 1392.92  277.92 1390.5  281 1390.5  Z " stroke-width="1" stroke="#797979" fill="none" />
  <path d="M 281 1399  C 279.32 1399  278 1397.68  278 1396  C 278 1394.32  279.32 1393  281 1393  C 282.68 1393  284 1394.32  284 1396  C 284 1397.68  282.68 1399  281 1399  " fill-rule="nonzero" fill="#797979" stroke="none" />
</svg>