<?xml version="1.0" encoding="utf-8"?>
<svg version="1.1" xmlns:xlink="http://www.w3.org/1999/xlink" width="12px" height="12px" viewBox="275 1617  12 12" xmlns="http://www.w3.org/2000/svg">
  <path d="M 281 1617  C 284.36 1617  287 1619.64  287 1623  C 287 1626.36  284.36 1629  281 1629  C 277.64 1629  275 1626.36  275 1623  C 275 1619.64  277.64 1617  281 1617  Z " fill-rule="nonzero" fill="#f0f0f0" stroke="none" />
  <path d="M 281 1617.5  C 284.08 1617.5  286.5 1619.92  286.5 1623  C 286.5 1626.08  284.08 1628.5  281 1628.5  C 277.92 1628.5  275.5 1626.08  275.5 1623  C 275.5 1619.92  277.92 1617.5  281 1617.5  Z " stroke-width="1" stroke="#797979" fill="none" />
  <path d="M 281 1626  C 279.32 1626  278 1624.68  278 1623  C 278 1621.32  279.32 1620  281 1620  C 282.68 1620  284 1621.32  284 1623  C 284 1624.68  282.68 1626  281 1626  " fill-rule="nonzero" fill="#797979" stroke="none" />
</svg>