<?xml version="1.0" encoding="utf-8"?>
<svg version="1.1" xmlns:xlink="http://www.w3.org/1999/xlink" width="12px" height="12px" viewBox="384 1617  12 12" xmlns="http://www.w3.org/2000/svg">
  <path d="M 390 1617  C 393.36 1617  396 1619.64  396 1623  C 396 1626.36  393.36 1629  390 1629  C 386.64 1629  384 1626.36  384 1623  C 384 1619.64  386.64 1617  390 1617  Z " fill-rule="nonzero" fill="#f0f0f0" stroke="none" />
  <path d="M 390 1617.5  C 393.08 1617.5  395.5 1619.92  395.5 1623  C 395.5 1626.08  393.08 1628.5  390 1628.5  C 386.92 1628.5  384.5 1626.08  384.5 1623  C 384.5 1619.92  386.92 1617.5  390 1617.5  Z " stroke-width="1" stroke="#797979" fill="none" />
  <path d="M 390 1626  C 388.32 1626  387 1624.68  387 1623  C 387 1621.32  388.32 1620  390 1620  C 391.68 1620  393 1621.32  393 1623  C 393 1624.68  391.68 1626  390 1626  " fill-rule="nonzero" fill="#797979" stroke="none" />
</svg>