<?xml version="1.0" encoding="utf-8"?>
<svg version="1.1" xmlns:xlink="http://www.w3.org/1999/xlink" width="12px" height="12px" viewBox="1068 1390  12 12" xmlns="http://www.w3.org/2000/svg">
  <path d="M 1074 1390  C 1077.36 1390  1080 1392.64  1080 1396  C 1080 1399.36  1077.36 1402  1074 1402  C 1070.64 1402  1068 1399.36  1068 1396  C 1068 1392.64  1070.64 1390  1074 1390  Z " fill-rule="nonzero" fill="#ffffff" stroke="none" />
  <path d="M 1074 1390.5  C 1077.08 1390.5  1079.5 1392.92  1079.5 1396  C 1079.5 1399.08  1077.08 1401.5  1074 1401.5  C 1070.92 1401.5  1068.5 1399.08  1068.5 1396  C 1068.5 1392.92  1070.92 1390.5  1074 1390.5  Z " stroke-width="1" stroke="#797979" fill="none" />
  <path d="M 1074 1399  C 1072.32 1399  1071 1397.68  1071 1396  C 1071 1394.32  1072.32 1393  1074 1393  C 1075.68 1393  1077 1394.32  1077 1396  C 1077 1397.68  1075.68 1399  1074 1399  " fill-rule="nonzero" fill="#797979" stroke="none" />
</svg>