<?xml version="1.0" encoding="utf-8"?>
<svg version="1.1" xmlns:xlink="http://www.w3.org/1999/xlink" width="12px" height="12px" viewBox="959 1390  12 12" xmlns="http://www.w3.org/2000/svg">
  <path d="M 965 1390  C 968.36 1390  971 1392.64  971 1396  C 971 1399.36  968.36 1402  965 1402  C 961.64 1402  959 1399.36  959 1396  C 959 1392.64  961.64 1390  965 1390  Z " fill-rule="nonzero" fill="#ffffff" stroke="none" />
  <path d="M 965 1390.5  C 968.08 1390.5  970.5 1392.92  970.5 1396  C 970.5 1399.08  968.08 1401.5  965 1401.5  C 961.92 1401.5  959.5 1399.08  959.5 1396  C 959.5 1392.92  961.92 1390.5  965 1390.5  Z " stroke-width="1" stroke="#797979" fill="none" />
  <path d="M 965 1399  C 963.32 1399  962 1397.68  962 1396  C 962 1394.32  963.32 1393  965 1393  C 966.68 1393  968 1394.32  968 1396  C 968 1397.68  966.68 1399  965 1399  " fill-rule="nonzero" fill="#797979" stroke="none" />
</svg>