<?xml version="1.0" encoding="utf-8"?>
<svg version="1.1" xmlns:xlink="http://www.w3.org/1999/xlink" width="12px" height="12px" viewBox="1068 1646  12 12" xmlns="http://www.w3.org/2000/svg">
  <path d="M 1074 1646  C 1077.36 1646  1080 1648.64  1080 1652  C 1080 1655.36  1077.36 1658  1074 1658  C 1070.64 1658  1068 1655.36  1068 1652  C 1068 1648.64  1070.64 1646  1074 1646  Z " fill-rule="nonzero" fill="#f0f0f0" stroke="none" />
  <path d="M 1074 1646.5  C 1077.08 1646.5  1079.5 1648.92  1079.5 1652  C 1079.5 1655.08  1077.08 1657.5  1074 1657.5  C 1070.92 1657.5  1068.5 1655.08  1068.5 1652  C 1068.5 1648.92  1070.92 1646.5  1074 1646.5  Z " stroke-width="1" stroke="#797979" fill="none" />
  <path d="M 1074 1655  C 1072.32 1655  1071 1653.68  1071 1652  C 1071 1650.32  1072.32 1649  1074 1649  C 1075.68 1649  1077 1650.32  1077 1652  C 1077 1653.68  1075.68 1655  1074 1655  " fill-rule="nonzero" fill="#797979" stroke="none" />
</svg>