<?xml version="1.0" encoding="utf-8"?>
<svg version="1.1" xmlns:xlink="http://www.w3.org/1999/xlink" width="12px" height="12px" viewBox="959 1646  12 12" xmlns="http://www.w3.org/2000/svg">
  <path d="M 965 1646  C 968.36 1646  971 1648.64  971 1652  C 971 1655.36  968.36 1658  965 1658  C 961.64 1658  959 1655.36  959 1652  C 959 1648.64  961.64 1646  965 1646  Z " fill-rule="nonzero" fill="#ffffff" stroke="none" />
  <path d="M 965 1646.5  C 968.08 1646.5  970.5 1648.92  970.5 1652  C 970.5 1655.08  968.08 1657.5  965 1657.5  C 961.92 1657.5  959.5 1655.08  959.5 1652  C 959.5 1648.92  961.92 1646.5  965 1646.5  Z " stroke-width="1" stroke="#797979" fill="none" />
  <path d="M 965 1655  C 963.32 1655  962 1653.68  962 1652  C 962 1650.32  963.32 1649  965 1649  C 966.68 1649  968 1650.32  968 1652  C 968 1653.68  966.68 1655  965 1655  " fill-rule="nonzero" fill="#797979" stroke="none" />
</svg>