<?xml version="1.0" encoding="utf-8"?>
<svg version="1.1" xmlns:xlink="http://www.w3.org/1999/xlink" width="12px" height="12px" viewBox="2402 890  12 12" xmlns="http://www.w3.org/2000/svg">
  <path d="M 2408 890  C 2411.36 890  2414 892.64  2414 896  C 2414 899.36  2411.36 902  2408 902  C 2404.64 902  2402 899.36  2402 896  C 2402 892.64  2404.64 890  2408 890  Z " fill-rule="nonzero" fill="#f0f0f0" stroke="none" />
  <path d="M 2408 890.5  C 2411.08 890.5  2413.5 892.92  2413.5 896  C 2413.5 899.08  2411.08 901.5  2408 901.5  C 2404.92 901.5  2402.5 899.08  2402.5 896  C 2402.5 892.92  2404.92 890.5  2408 890.5  Z " stroke-width="1" stroke="#797979" fill="none" />
  <path d="M 2408 899  C 2406.32 899  2405 897.68  2405 896  C 2405 894.32  2406.32 893  2408 893  C 2409.68 893  2411 894.32  2411 896  C 2411 897.68  2409.68 899  2408 899  " fill-rule="nonzero" fill="#797979" stroke="none" />
</svg>