<?xml version="1.0" encoding="utf-8"?>
<svg version="1.1" xmlns:xlink="http://www.w3.org/1999/xlink" width="12px" height="12px" viewBox="2259 890  12 12" xmlns="http://www.w3.org/2000/svg">
  <path d="M 2265 890  C 2268.36 890  2271 892.64  2271 896  C 2271 899.36  2268.36 902  2265 902  C 2261.64 902  2259 899.36  2259 896  C 2259 892.64  2261.64 890  2265 890  Z " fill-rule="nonzero" fill="#f0f0f0" stroke="none" />
  <path d="M 2265 890.5  C 2268.08 890.5  2270.5 892.92  2270.5 896  C 2270.5 899.08  2268.08 901.5  2265 901.5  C 2261.92 901.5  2259.5 899.08  2259.5 896  C 2259.5 892.92  2261.92 890.5  2265 890.5  Z " stroke-width="1" stroke="#797979" fill="none" />
  <path d="M 2265 899  C 2263.32 899  2262 897.68  2262 896  C 2262 894.32  2263.32 893  2265 893  C 2266.68 893  2268 894.32  2268 896  C 2268 897.68  2266.68 899  2265 899  " fill-rule="nonzero" fill="#797979" stroke="none" />
</svg>