<?xml version="1.0" encoding="utf-8"?>
<svg version="1.1" xmlns:xlink="http://www.w3.org/1999/xlink" width="12px" height="12px" viewBox="1822 924  12 12" xmlns="http://www.w3.org/2000/svg">
  <path d="M 1828 924  C 1831.36 924  1834 926.64  1834 930  C 1834 933.36  1831.36 936  1828 936  C 1824.64 936  1822 933.36  1822 930  C 1822 926.64  1824.64 924  1828 924  Z " fill-rule="nonzero" fill="#ffffff" stroke="none" />
  <path d="M 1828 924.5  C 1831.08 924.5  1833.5 926.92  1833.5 930  C 1833.5 933.08  1831.08 935.5  1828 935.5  C 1824.92 935.5  1822.5 933.08  1822.5 930  C 1822.5 926.92  1824.92 924.5  1828 924.5  Z " stroke-width="1" stroke="#797979" fill="none" />
  <path d="M 1828 933  C 1826.32 933  1825 931.68  1825 930  C 1825 928.32  1826.32 927  1828 927  C 1829.68 927  1831 928.32  1831 930  C 1831 931.68  1829.68 933  1828 933  " fill-rule="nonzero" fill="#797979" stroke="none" />
</svg>