<?xml version="1.0" encoding="utf-8"?>
<svg version="1.1" xmlns:xlink="http://www.w3.org/1999/xlink" width="12px" height="12px" viewBox="1679 924  12 12" xmlns="http://www.w3.org/2000/svg">
  <path d="M 1685 924  C 1688.36 924  1691 926.64  1691 930  C 1691 933.36  1688.36 936  1685 936  C 1681.64 936  1679 933.36  1679 930  C 1679 926.64  1681.64 924  1685 924  Z " fill-rule="nonzero" fill="#f0f0f0" stroke="none" />
  <path d="M 1685 924.5  C 1688.08 924.5  1690.5 926.92  1690.5 930  C 1690.5 933.08  1688.08 935.5  1685 935.5  C 1681.92 935.5  1679.5 933.08  1679.5 930  C 1679.5 926.92  1681.92 924.5  1685 924.5  Z " stroke-width="1" stroke="#797979" fill="none" />
  <path d="M 1685 933  C 1683.32 933  1682 931.68  1682 930  C 1682 928.32  1683.32 927  1685 927  C 1686.68 927  1688 928.32  1688 930  C 1688 931.68  1686.68 933  1685 933  " fill-rule="nonzero" fill="#797979" stroke="none" />
</svg>