<?xml version="1.0" encoding="utf-8"?>
<svg version="1.1" xmlns:xlink="http://www.w3.org/1999/xlink" width="41px" height="55px" xmlns="http://www.w3.org/2000/svg">
  <g transform="matrix(1 0 0 1 -1610 1016 )">
    <path d="M 40.03367003367 41.1111111111111  C 40.6778900112233 41.9753086419753  41 43.0246913580247  41 44.2592592592593  C 41 45.4938271604938  40.6778900112233 46.5432098765432  40.03367003367 47.4074074074074  L 35.3400673400673 53.7037037037037  C 34.695847362514 54.5679012345679  33.9135802469136 55  32.993265993266 55  C 32.0729517396184 55  31.290684624018 54.5679012345679  30.6464646464646 53.7037037037037  L 20.5 40.0925925925926  L 10.3535353535354 53.7037037037037  C 9.70931537598204 54.5679012345679  8.92704826038159 55  8.00673400673401 55  C 7.08641975308642 55  6.30415263748597 54.5679012345679  5.65993265993266 53.7037037037037  L 0.966329966329966 47.4074074074074  C 0.322109988776656 46.5432098765432  0 45.4938271604938  0 44.2592592592593  C 0 43.0246913580247  0.322109988776656 41.9753086419753  0.966329966329966 41.1111111111111  L 11.1127946127946 27.5  L 0.966329966329966 13.8888888888889  C 0.322109988776656 13.0246913580247  0 11.9753086419753  0 10.7407407407407  C 0 9.50617283950617  0.322109988776656 8.45679012345678  0.966329966329966 7.59259259259259  L 5.65993265993266 1.2962962962963  C 6.30415263748597 0.432098765432097  7.08641975308642 0  8.00673400673401 0  C 8.92704826038159 0  9.70931537598204 0.432098765432097  10.3535353535354 1.2962962962963  L 20.5 14.9074074074074  L 30.6464646464646 1.2962962962963  C 31.290684624018 0.432098765432097  32.0729517396184 0  32.993265993266 0  C 33.9135802469136 0  34.695847362514 0.432098765432097  35.3400673400673 1.2962962962963  L 40.03367003367 7.59259259259259  C 40.6778900112233 8.45679012345678  41 9.50617283950617  41 10.7407407407407  C 41 11.9753086419753  40.6778900112233 13.0246913580247  40.03367003367 13.8888888888889  L 29.8872053872054 27.5  L 40.03367003367 41.1111111111111  Z " fill-rule="nonzero" fill="#000000" stroke="none" transform="matrix(1 0 0 1 1610 -1016 )" />
  </g>
</svg>