<?xml version="1.0" encoding="utf-8"?>
<svg version="1.1" xmlns:xlink="http://www.w3.org/1999/xlink" width="28px" height="31px" xmlns="http://www.w3.org/2000/svg">
  <g transform="matrix(1 0 0 1 -1200 -333 )">
    <path d="M 27.3400673400673 23.1717171717172  C 27.7800224466891 23.658810325477  28 24.2502805836139  28 24.9461279461279  C 28 25.641975308642  27.7800224466891 26.2334455667789  27.3400673400673 26.7205387205387  L 24.1346801346801 30.2693602693603  C 23.6947250280584 30.7564534231201  23.1604938271605 31  22.5319865319865 31  C 21.9034792368126 31  21.3692480359147 30.7564534231201  20.9292929292929 30.2693602693603  L 14 22.5976430976431  L 7.07070707070707 30.2693602693603  C 6.6307519640853 30.7564534231201  6.09652076318743 31  5.46801346801347 31  C 4.83950617283951 31  4.30527497194164 30.7564534231201  3.86531986531987 30.2693602693603  L 0.65993265993266 26.7205387205387  C 0.219977553310887 26.2334455667789  0 25.641975308642  0 24.9461279461279  C 0 24.2502805836139  0.219977553310887 23.658810325477  0.65993265993266 23.1717171717172  L 7.58922558922559 15.5  L 0.65993265993266 7.82828282828283  C 0.219977553310887 7.34118967452301  0 6.74971941638608  0 6.05387205387205  C 0 5.35802469135802  0.219977553310887 4.7665544332211  0.65993265993266 4.27946127946128  L 3.86531986531987 0.730639730639731  C 4.30527497194164 0.243546576879909  4.83950617283951 0  5.46801346801347 0  C 6.09652076318743 0  6.6307519640853 0.243546576879909  7.07070707070707 0.730639730639731  L 14 8.4023569023569  L 20.9292929292929 0.730639730639731  C 21.3692480359147 0.243546576879909  21.9034792368126 0  22.5319865319865 0  C 23.1604938271605 0  23.6947250280584 0.243546576879909  24.1346801346801 0.730639730639731  L 27.3400673400673 4.27946127946128  C 27.7800224466891 4.7665544332211  28 5.35802469135802  28 6.05387205387205  C 28 6.74971941638608  27.7800224466891 7.34118967452301  27.3400673400673 7.82828282828283  L 20.4107744107744 15.5  L 27.3400673400673 23.1717171717172  Z " fill-rule="nonzero" fill="#000000" stroke="none" transform="matrix(1 0 0 1 1200 333 )" />
  </g>
</svg>