<?xml version="1.0" encoding="utf-8"?>
<svg version="1.1" xmlns:xlink="http://www.w3.org/1999/xlink" width="74px" height="73px" xmlns="http://www.w3.org/2000/svg">
  <g transform="matrix(1 0 0 1 -328 -630 )">
    <path d="M 365 631  C 385.16 631  401 646.62  401 666.5  C 401 686.38  385.16 702  365 702  C 344.84 702  329 686.38  329 666.5  C 329 646.62  344.84 631  365 631  Z " fill-rule="nonzero" fill="#ffffff" stroke="none" />
    <path d="M 365 631  C 385.16 631  401 646.62  401 666.5  C 401 686.38  385.16 702  365 702  C 344.84 702  329 686.38  329 666.5  C 329 646.62  344.84 631  365 631  Z " stroke-width="2" stroke="#52c41a" fill="none" />
  </g>
</svg>