<?xml version="1.0" encoding="utf-8"?>
<svg version="1.1" xmlns:xlink="http://www.w3.org/1999/xlink" width="47px" height="46px" xmlns="http://www.w3.org/2000/svg">
  <g transform="matrix(1 0 0 1 -824 -657 )">
    <path d="M 11.9900841346154 34.6996527777778  C 12.6962139423077 35.365162037037  13.0492788461538 36.1682098765432  13.0492788461538 37.1087962962963  C 13.0492788461538 38.0493827160494  12.6962139423077 38.8524305555556  11.9900841346154 39.5179398148148  C 11.2839543269231 40.1834490740741  10.431891025641 40.5162037037037  9.43389423076923 40.5162037037037  C 8.45472756410257 40.5162037037037  7.6073717948718 40.179012345679  6.89182692307692 39.5046296296296  C 6.17628205128205 38.8302469135803  5.81850961538462 38.0316358024691  5.81850961538462 37.1087962962963  C 5.81850961538462 36.1682098765432  6.17157451923077 35.365162037037  6.87770432692308 34.6996527777778  C 7.58383413461538 34.0341435185185  8.43589743589744 33.7013888888889  9.43389423076923 33.7013888888889  C 10.431891025641 33.7013888888889  11.2839543269231 34.0341435185185  11.9900841346154 34.6996527777778  Z M 26.0561899038462 40.1834490740741  C 26.7623197115385 40.8489583333333  27.1153846153846 41.6520061728395  27.1153846153846 42.5925925925926  C 27.1153846153846 43.5331790123457  26.7623197115385 44.3362268518518  26.0561899038462 45.0017361111111  C 25.3500600961538 45.6672453703704  24.4979967948718 46  23.5 46  C 22.5020032051282 46  21.6499399038462 45.6672453703704  20.9438100961538 45.0017361111111  C 20.2376802884615 44.3362268518518  19.8846153846154 43.5331790123457  19.8846153846154 42.5925925925926  C 19.8846153846154 41.6520061728395  20.2376802884615 40.8489583333333  20.9438100961538 40.1834490740741  C 21.6499399038462 39.5179398148148  22.5020032051282 39.1851851851852  23.5 39.1851851851852  C 24.4979967948718 39.1851851851852  25.3500600961538 39.5179398148148  26.0561899038462 40.1834490740741  Z M 6.17157451923077 21.4427083333333  C 6.87770432692308 22.1082175925926  7.23076923076923 22.9112654320988  7.23076923076923 23.8518518518519  C 7.23076923076923 24.7924382716049  6.87770432692308 25.5954861111111  6.17157451923077 26.2609953703704  C 5.46544471153846 26.9265046296296  4.61338141025641 27.2592592592593  3.61538461538462 27.2592592592593  C 2.61738782051282 27.2592592592593  1.76532451923077 26.9265046296296  1.05919471153846 26.2609953703704  C 0.353064903846154 25.5954861111111  0 24.7924382716049  0 23.8518518518519  C 0 22.9112654320988  0.353064903846154 22.1082175925926  1.05919471153846 21.4427083333333  C 1.76532451923077 20.7771990740741  2.61738782051282 20.4444444444444  3.61538461538462 20.4444444444444  C 4.61338141025641 20.4444444444444  5.46544471153846 20.7771990740741  6.17157451923077 21.4427083333333  Z M 40.1222956730769 34.6996527777778  C 40.8284254807692 35.365162037037  41.1814903846154 36.1682098765432  41.1814903846154 37.1087962962963  C 41.1814903846154 38.0316358024691  40.823717948718 38.8302469135803  40.1081730769231 39.5046296296296  C 39.3926282051282 40.179012345679  38.5452724358974 40.5162037037037  37.5661057692308 40.5162037037037  C 36.568108974359 40.5162037037037  35.7160456730769 40.1834490740741  35.0099158653846 39.5179398148148  C 34.3037860576923 38.8524305555556  33.9507211538462 38.0493827160494  33.9507211538462 37.1087962962963  C 33.9507211538462 36.1682098765432  34.3037860576923 35.365162037037  35.0099158653846 34.6996527777778  C 35.7160456730769 34.0341435185185  36.568108974359 33.7013888888889  37.5661057692308 33.7013888888889  C 38.5641025641026 33.7013888888889  39.4161658653846 34.0341435185185  40.1222956730769 34.6996527777778  Z M 12.6256009615385 7.58680555555556  C 13.5106169871795 8.42091049382716  13.953125 9.42361111111111  13.953125 10.5949074074074  C 13.953125 11.7662037037037  13.5106169871795 12.7689043209876  12.6256009615385 13.6030092592593  C 11.7405849358974 14.4371141975309  10.6766826923077 14.8541666666667  9.43389423076923 14.8541666666667  C 8.19110576923077 14.8541666666667  7.12720352564103 14.4371141975309  6.2421875 13.6030092592593  C 5.35717147435897 12.7689043209876  4.91466346153846 11.7662037037037  4.91466346153846 10.5949074074074  C 4.91466346153846 9.42361111111111  5.35717147435897 8.42091049382716  6.2421875 7.58680555555556  C 7.12720352564103 6.75270061728395  8.19110576923077 6.33564814814815  9.43389423076923 6.33564814814815  C 10.6766826923077 6.33564814814815  11.7405849358974 6.75270061728395  12.6256009615385 7.58680555555556  Z M 45.9408052884615 21.4427083333333  C 46.6469350961539 22.1082175925926  47 22.9112654320988  47 23.8518518518519  C 47 24.7924382716049  46.6469350961539 25.5954861111111  45.9408052884615 26.2609953703704  C 45.2346754807692 26.9265046296296  44.3826121794872 27.2592592592593  43.3846153846154 27.2592592592593  C 42.3866185897436 27.2592592592593  41.5345552884615 26.9265046296296  40.8284254807692 26.2609953703704  C 40.1222956730769 25.5954861111111  39.7692307692308 24.7924382716049  39.7692307692308 23.8518518518519  C 39.7692307692308 22.9112654320988  40.1222956730769 22.1082175925926  40.8284254807692 21.4427083333333  C 41.5345552884615 20.7771990740741  42.3866185897436 20.4444444444444  43.3846153846154 20.4444444444444  C 44.3826121794872 20.4444444444444  45.2346754807692 20.7771990740741  45.9408052884615 21.4427083333333  Z M 27.3413461538462 1.49074074074074  C 28.3958333333333 2.48456790123456  28.9230769230769 3.69135802469135  28.9230769230769 5.11111111111111  C 28.9230769230769 6.53086419753086  28.3958333333333 7.73765432098765  27.3413461538462 8.73148148148148  C 26.286858974359 9.72530864197531  25.0064102564103 10.2222222222222  23.5 10.2222222222222  C 21.9935897435897 10.2222222222222  20.713141025641 9.72530864197531  19.6586538461538 8.73148148148148  C 18.6041666666667 7.73765432098765  18.0769230769231 6.53086419753086  18.0769230769231 5.11111111111111  C 18.0769230769231 3.69135802469135  18.6041666666667 2.48456790123456  19.6586538461538 1.49074074074074  C 20.713141025641 0.496913580246916  21.9935897435897 0  23.5 0  C 25.0064102564103 0  26.286858974359 0.496913580246916  27.3413461538462 1.49074074074074  Z M 42.0288461538462 6.38888888888889  C 43.2716346153846 7.56018518518519  43.8930288461538 8.96219135802469  43.8930288461538 10.5949074074074  C 43.8930288461538 12.2453703703704  43.2716346153846 13.6518132716049  42.0288461538462 14.8142361111111  C 40.7860576923077 15.9766589506173  39.2984775641026 16.5578703703704  37.5661057692308 16.5578703703704  C 35.8149038461538 16.5578703703704  34.3226161858974 15.9766589506173  33.0892427884615 14.8142361111111  C 31.8558693910256 13.6518132716049  31.2391826923077 12.2453703703704  31.2391826923077 10.5949074074074  C 31.2391826923077 8.96219135802469  31.8558693910256 7.56018518518519  33.0892427884615 6.38888888888889  C 34.3226161858974 5.21759259259259  35.8149038461538 4.63194444444444  37.5661057692308 4.63194444444444  C 39.2984775641026 4.63194444444444  40.7860576923077 5.21759259259259  42.0288461538462 6.38888888888889  Z " fill-rule="nonzero" fill="#000000" stroke="none" transform="matrix(1 0 0 1 824 657 )" />
  </g>
</svg>